<?xml version="1.0" encoding="UTF-8"?>
<svg width="32px" height="34px" viewBox="0 0 32 34" version="1.1" xmlns="http://www.w3.org/2000/svg" xmlns:xlink="http://www.w3.org/1999/xlink">
    <!-- Generator: sketchtool 52.4 (67378) - http://www.bohemiancoding.com/sketch -->
    <title>89ADCCE7-FFA7-431B-A581-B11BA666CC8E</title>
    <desc>Created with sketchtool.</desc>
    <g id="Page-1" stroke="none" stroke-width="1" fill="none" fill-rule="evenodd">
        <g id="Product-Page" transform="translate(-1265.000000, -31.000000)">
            <g id="cart" transform="translate(1242.000000, 0.000000)">
                <rect id="padding-cart" fill-rule="nonzero" x="0" y="0" width="78" height="96"></rect>
                <path d="M32.4013955,57.7142021 C34.3484883,57.7142021 35.9269188,59.3451596 35.9269188,61.3570478 C35.9269188,63.3689359 34.3484883,64.9998935 32.4013955,64.9998935 C30.4543028,64.9998935 28.8758722,63.3689359 28.8758722,61.3570478 C28.8758722,59.3451596 30.4543028,57.7142021 32.4013955,57.7142021 Z M32.4013955,62.5713297 C33.0504264,62.5713297 33.57657,62.0276772 33.57657,61.3570478 C33.57657,60.6864184 33.0504264,60.1427659 32.4013955,60.1427659 C31.7523646,60.1427659 31.2262211,60.6864184 31.2262211,61.3570478 C31.2262211,62.0276772 31.7523646,62.5713297 32.4013955,62.5713297 Z M46.5034888,57.7142021 C48.4505816,57.7142021 50.0290121,59.3451596 50.0290121,61.3570478 C50.0290121,62.8304413 49.1700459,64.1587551 47.8526482,64.7225984 C46.5352504,65.2864417 45.01886,64.9747753 44.0105674,63.9329287 C43.0022747,62.8910821 42.7006459,61.3242292 43.24633,59.9629911 C43.792014,58.6017529 45.0775477,57.7142021 46.5034888,57.7142021 Z M46.5034888,62.5713297 C47.1525197,62.5713297 47.6786632,62.0276772 47.6786632,61.3570478 C47.6786632,60.6864184 47.1525197,60.1427659 46.5034888,60.1427659 C45.8544579,60.1427659 45.3283144,60.6864184 45.3283144,61.3570478 C45.3283144,62.0276772 45.8544579,62.5713297 46.5034888,62.5713297 Z M28.6173338,35.8571276 L55,35.8571276 L52.6496511,45.6442399 C52.3272803,46.9679857 51.3157496,47.9944303 50.0290121,48.3035172 L32.6246787,52.5413611 L32.7656996,53.1485021 C32.8982775,53.7036515 33.3877227,54.0880085 33.940874,54.0713563 L50.0290121,54.0713563 L50.0290121,56.4999201 L33.940874,56.4999201 C32.3110079,56.5168372 30.8823997,55.3770891 30.4858612,53.7435002 L30.0510466,51.9342202 L25.8674256,34.3514181 C25.7348477,33.7962687 25.2454025,33.4119116 24.6922512,33.4285638 L23,33.4285638 L23,31 L24.6922512,31 C26.3089943,30.9999043 27.7186013,32.1360869 28.1120088,33.7564199 L28.6173338,35.8571276 Z M50.4168197,45.0613845 L52.0503122,38.2856915 L29.204921,38.2856915 L32.0840984,50.1856542 L49.5354389,45.9478103 C49.9673695,45.8474649 50.3080698,45.5048144 50.4168197,45.0613845 Z" id="Icon" fill="#FFFFFF"></path>
            </g>
        </g>
    </g>
</svg>