<?xml version="1.0" encoding="UTF-8"?>
<svg width="172px" height="32px" viewBox="0 0 172 32" version="1.1" xmlns="http://www.w3.org/2000/svg" xmlns:xlink="http://www.w3.org/1999/xlink">
    <!-- Generator: sketchtool 52.4 (67378) - http://www.bohemiancoding.com/sketch -->
    <title>BCC960DF-BC1C-4AF3-9FEE-EBACDEAD23A5</title>
    <desc>Created with sketchtool.</desc>
    <g id="Page-1" stroke="none" stroke-width="1" fill="none" fill-rule="evenodd">
        <g id="Product-Page" transform="translate(-121.000000, -32.000000)" fill="#FFFFFF">
            <g id="logo" transform="translate(120.000000, 32.000000)">
                <g id="Group">
                    <path d="M20,27.39 C19.9796791,28.3830003 20.563284,29.2892237 21.4757333,29.681523 C22.3881826,30.0738223 23.4473647,29.8739003 24.1540355,29.1759899 C24.8607063,28.4780795 25.0738245,27.4214735 24.6929372,26.5042018 C24.3120498,25.5869302 23.4131765,24.9920669 22.42,25 C21.0994964,25.0105477 20.0270182,26.0697307 20,27.39 Z M23.26,27.39 C23.2640557,27.722539 23.066861,28.0245962 22.7607915,28.1546734 C22.4547219,28.2847506 22.1003978,28.2170848 21.8638015,27.9833738 C21.6272052,27.7496628 21.5551971,27.3961956 21.6815092,27.0885531 C21.8078213,26.7809106 22.1074363,26.5800247 22.44,26.58 C22.8811868,26.5907326 23.2347486,26.9487139 23.24,27.39 L23.26,27.39 Z" id="Shape" fill-rule="nonzero"></path>
                    <polygon id="Path" points="30.29 2.71 14.56 2.71 14.56 5.15 16.19 5.15 16.19 4.34 28.66 4.34 28.66 22.78 20.25 22.78 20.25 24.41 30.29 24.41"></polygon>
                    <path d="M30,0 L14.83,0 C13.1731458,-1.01453063e-16 11.83,1.34314575 11.83,3 L11.83,5.15 L13.45,5.15 L13.45,3 C13.4554943,2.25280092 14.0627807,1.6499798 14.81,1.65 L30,1.65 C30.3606973,1.64733806 30.7076779,1.78807665 30.9646048,2.04125286 C31.2215318,2.29442907 31.3673576,2.63930251 31.37,3 L31.37,29 C31.3726877,29.3641639 31.229212,29.7141925 30.9717023,29.9717023 C30.7141925,30.229212 30.3641639,30.3726877 30,30.37 L14.83,30.37 C14.4675663,30.3700098 14.1201208,30.2253526 13.8647819,29.9681362 C13.609443,29.7109198 13.467335,29.3624239 13.47,29 L13.47,23.59 L11.85,23.59 L11.85,29 C11.85,30.6568542 13.1931458,32 14.85,32 L30,32 C31.6568542,32 33,30.6568542 33,29 L33,3 C33,1.34314575 31.6568542,1.01453063e-16 30,0 Z" id="Path"></path>
                    <path d="M8,14 C8.72499498,14.9692891 9.86457074,15.5400054 11.075,15.5400054 C12.2854293,15.5400054 13.425005,14.9692891 14.15,14 C15.1436766,15.3674659 16.9099089,15.9317901 18.5123879,15.393815 C20.1148669,14.8558399 21.1827764,13.3400538 21.15,11.65 L21.15,11.37 L18.55,8.14 L19.17,8.14 L19.17,6.51 L2.9,6.51 L2.9,8.14 L3.44,8.14 L1,11.39 L1,11.66 C0.971735472,13.3481841 2.04119224,14.8598411 3.64251068,15.395139 C5.24382913,15.9304369 7.00735897,15.3658069 8,14 Z M11,13.92 C10.0679747,13.9159312 9.23403875,13.3401182 8.9,12.47 L13.11,12.47 C12.7746449,13.3435205 11.9356822,13.9200589 11,13.92 Z M17.15,13.92 C16.2170865,13.9187665 15.381702,13.3419534 15.05,12.47 L19.25,12.47 C18.9222707,13.3318074 18.1019192,13.9064498 17.18,13.92 L17.15,13.92 Z M16.46,8.14 L18.56,10.85 L3.44,10.85 L5.44,8.14 L16.46,8.14 Z M2.79,12.47 L7,12.47 C6.66577574,13.3388944 5.83095832,13.9122253 4.9,13.9122253 C3.96904168,13.9122253 3.13422426,13.3388944 2.8,12.47 L2.79,12.47 Z" id="Shape" fill-rule="nonzero"></path>
                    <polygon id="Path" points="15.91 20.61 15.91 22.24 19.44 22.24 19.44 16 17.81 16 17.81 20.61"></polygon>
                    <polygon id="Path" points="4.25 16 2.63 16 2.63 22.24 6.15 22.24 6.15 20.61 4.25 20.61"></polygon>
                    <path d="M14.56,16.27 L7.56,16.27 L7.56,22.27 L14.61,22.27 L14.56,16.27 Z M12.93,20.61 L9.14,20.61 L9.14,17.9 L12.93,17.9 L12.93,20.61 Z" id="Shape" fill-rule="nonzero"></path>
                </g>
                <text id="your-store" font-family="Helvetica-Bold, Helvetica" font-size="20" font-weight="bold">
                    <tspan x="41" y="23">YOUR STORE</tspan>
                </text>
            </g>
        </g>
    </g>
</svg>